<svg width="21" height="22" fill="none" xmlns="http://www.w3.org/2000/svg"><circle cx="10.5" cy="11.39" r="10.5" fill="#fff"/><path d="M7.4 15.89a.35.35 0 0 1-.24-.09.35.35 0 0 1-.08-.23v-.45c0-.09.02-.18.07-.28.04-.1.14-.22.28-.34l2.97-2.97c.47-.4.84-.74 1.12-1.02.28-.29.47-.56.58-.82.12-.26.19-.54.19-.82 0-.53-.15-.95-.45-1.26-.3-.31-.74-.47-1.33-.47-.38 0-.7.08-.97.24-.27.15-.48.36-.64.63-.15.26-.25.56-.3.9-.02.11-.07.2-.15.24a.4.4 0 0 1-.21.07h-.73a.32.32 0 0 1-.2-.07.27.27 0 0 1-.1-.2 3.1 3.1 0 0 1 1.87-2.74c.41-.18.89-.28 1.43-.28.73 0 1.34.14 1.8.41.48.26.83.61 1.05 1.05a3.12 3.12 0 0 1 .13 2.58c-.14.33-.35.66-.62 1-.26.3-.58.63-.98.97l-2.68 2.73h4.36c.1 0 .19.03.24.08.07.06.1.14.1.24v.58c0 .09-.03.17-.1.23-.05.06-.13.09-.24.09H7.4Z" fill="#000"/></svg>