<svg xmlns="http://www.w3.org/2000/svg" width="16" height="14" fill="none"><g clip-path="url(#a)"><g clip-path="url(#b)"><path fill="#000" d="M10.35.15c1.6-.5 2.77.3 3.41 1.1.53-.2 1.17-.4 1.81-.6a2 2 0 0 1-.85 1.6c.75.2 1.28-.4 1.28-.4-.1.9-.96 1.7-1.5 1.89-.2 6.27-2.98 10.36-9.49 10.26H4.6c-.32 0-3.95-.4-4.59-1.8 2.13.2 3.63-.4 4.37-1.09-.85-.3-2.56-.4-2.77-2.79.32.2.53.3 1.17.2C1.6 7.72.32 7.02.43 5.03c.32.3.96.5 1.28.4C1.07 5.23-.21 2.35.85.85c1.71 1.7 3.52 3.39 6.72 3.49C7.8 2.24 8.64.85 10.35.15Z"/></g></g><defs><clipPath id="a"><path fill="#fff" d="M16 14H0V0h16z"/></clipPath><clipPath id="b"><path fill="#fff" d="M0 0h16v14H0z"/></clipPath></defs></svg>